<?xml version="1.0" encoding="utf-8"?>
<svg viewBox="0 0 3700 879" xmlns="http://www.w3.org/2000/svg">
  <g transform="matrix(0.10000000149011612, 0, 0, -0.10000000149011612, 2.2737367544323206e-13, 879.0000000000002)" fill="#000000" stroke="none">
    <path d="M1980 6475 l0 -495 380 0 380 0 0 -1975 0 -1975 640 0 640 0 0 1975 0 1975 380 0 380 0 0 495 0 495 -1400 0 -1400 0 0 -495z" style="fill: rgb(255, 96, 0);"/>
    <path d="M15320 6395 c0 -316 -3 -575 -6 -575 -4 0 -36 26 -73 58 -184 163 -364 241 -600 261 -286 25 -528 -54 -713 -232 -115 -110 -164 -217 -196 -422 -15 -99 -17 -238 -17 -1415 0 -1378 1 -1420 46 -1582 28 -100 73 -181 143 -255 187 -200 428 -289 712 -262 131 12 199 32 329 94 110 53 253 154 324 229 19 20 39 36 43 36 4 0 8 -67 8 -150 l0 -150 610 0 610 0 0 2470 0 2470 -610 0 -610 0 0 -575z m-105 -979 c19 -8 43 -29 54 -47 45 -74 46 -97 46 -1299 -1 -1017 -3 -1144 -17 -1219 -27 -137 -70 -174 -196 -169 -65 3 -75 6 -102 33 -17 18 -36 54 -47 90 -16 55 -18 147 -21 1185 -2 757 0 1158 8 1225 12 118 37 176 83 199 41 20 146 21 192 2z" style="fill: rgb(255, 96, 0);"/>
    <path d="M17030 4500 l0 -2473 953 6 c523 3 1013 10 1087 16 400 31 563 83 700 221 114 115 171 241 212 471 22 118 23 148 23 644 0 566 -4 612 -61 785 -85 253 -253 395 -579 491 -60 17 -111 33 -112 33 -1 1 49 17 112 35 155 45 298 116 375 187 127 118 180 313 180 662 0 368 -58 677 -161 861 -128 227 -338 385 -600 450 -248 62 -413 72 -1321 78 l-808 6 0 -2473z m1545 1595 c52 -21 82 -50 110 -106 39 -76 49 -156 48 -394 -1 -232 -15 -394 -40 -457 -33 -83 -116 -118 -280 -118 l-103 0 0 551 0 552 113 -6 c71 -3 128 -11 152 -22z m-63 -1860 c205 -36 216 -65 225 -570 5 -323 -4 -522 -27 -606 -13 -45 -47 -96 -80 -120 -36 -26 -131 -49 -232 -56 l-88 -6 0 687 0 686 63 0 c34 -1 97 -7 139 -15z"/>
    <path d="M30670 6395 c0 -316 -3 -575 -6 -575 -4 0 -36 26 -73 58 -184 163 -364 241 -600 261 -286 25 -528 -54 -713 -232 -115 -110 -164 -217 -196 -422 -15 -99 -17 -238 -17 -1415 0 -1378 1 -1420 46 -1582 28 -100 73 -181 143 -255 187 -200 428 -289 712 -262 131 12 199 32 329 94 110 53 253 154 324 229 19 20 39 36 43 36 4 0 8 -67 8 -150 l0 -150 610 0 610 0 0 2470 0 2470 -610 0 -610 0 0 -575z m-105 -979 c19 -8 43 -29 54 -47 45 -74 46 -97 46 -1299 -1 -1017 -3 -1144 -17 -1219 -27 -137 -70 -174 -196 -169 -65 3 -75 6 -102 33 -17 18 -36 54 -47 90 -16 55 -18 147 -21 1185 -2 757 0 1158 8 1225 12 118 37 176 83 199 41 20 146 21 192 2z"/>
    <path d="M6935 6139 c-282 -41 -522 -233 -675 -538 -17 -34 -33 -61 -36 -59 -4 5 29 402 42 496 l5 42 -615 0 -616 0 0 -2025 0 -2025 615 0 615 0 0 983 c0 925 7 1205 30 1337 15 81 63 172 118 221 101 90 247 136 460 146 l122 6 0 713 c0 393 -1 713 -2 713 -2 -1 -30 -5 -63 -10z" style="fill: rgb(255, 96, 0);"/>
    <path d="M8453 6140 c-524 -42 -909 -277 -1075 -655 -57 -129 -99 -310 -118 -513 -13 -142 -13 -1669 0 -1827 22 -246 63 -409 141 -555 188 -348 514 -544 1019 -611 47 -6 173 -11 280 -11 275 1 459 31 645 105 254 102 480 324 610 600 82 174 103 311 112 740 l6 307 -580 0 -581 0 -5 -387 c-6 -422 -14 -501 -63 -576 -34 -51 -91 -76 -172 -77 -74 0 -123 19 -148 58 -43 66 -47 111 -51 690 l-5 552 802 0 803 0 -6 423 c-6 424 -15 560 -52 744 -23 112 -62 237 -100 319 -143 313 -483 561 -870 638 -181 35 -418 50 -592 36z m315 -743 c16 -15 34 -45 40 -66 21 -69 32 -223 32 -458 l0 -233 -185 0 -185 0 0 218 c1 274 14 453 37 501 26 53 72 73 160 69 63 -3 76 -7 101 -31z" style="fill: rgb(255, 96, 0);"/>
    <path d="M12367 6139 c-108 -11 -249 -56 -341 -111 -81 -48 -195 -154 -251 -233 -81 -115 -77 -116 -70 20 3 66 8 153 11 193 l6 72 -626 0 -626 0 0 -2025 0 -2025 615 0 614 0 4 1593 c3 1099 7 1608 15 1644 25 122 71 163 183 163 72 0 118 -19 141 -58 38 -65 40 -142 45 -1764 l5 -1578 609 0 609 0 0 1520 c0 964 -4 1584 -11 1693 -20 326 -59 476 -160 610 -163 216 -439 319 -772 286z" style="fill: rgb(255, 96, 0);"/>
    <path d="M25595 6139 c-282 -41 -522 -233 -675 -538 -17 -34 -33 -61 -36 -59 -4 5 29 402 42 496 l5 42 -615 0 -616 0 0 -2025 0 -2025 615 0 615 0 0 983 c0 925 7 1205 30 1337 15 81 63 172 118 221 101 90 247 136 460 146 l122 6 0 713 c0 393 -1 713 -2 713 -2 -1 -30 -5 -63 -10z"/>
    <path d="M27110 6140 c-285 -19 -518 -88 -710 -208 -250 -158 -390 -335 -450 -570 -41 -163 -52 -268 -57 -564 l-6 -288 577 0 576 0 0 338 c1 336 8 460 32 510 7 14 29 37 48 50 31 21 44 23 110 20 90 -4 119 -21 155 -93 42 -86 63 -337 46 -547 -12 -138 -25 -190 -60 -224 -54 -54 -239 -142 -618 -295 -385 -154 -602 -268 -703 -369 -55 -55 -106 -164 -132 -281 -18 -82 -21 -139 -25 -436 -6 -380 3 -515 42 -670 58 -227 146 -338 345 -436 63 -31 151 -65 195 -77 246 -62 495 -38 682 65 87 48 214 177 268 270 l40 69 3 -187 2 -187 595 0 595 0 0 1223 c0 1662 -15 2010 -95 2240 -88 255 -343 480 -645 570 -217 66 -534 95 -810 77z m330 -2617 c0 -682 -12 -788 -95 -827 -52 -25 -172 -19 -212 10 -75 54 -99 190 -90 523 8 309 29 390 135 512 46 52 240 219 255 219 4 0 7 -197 7 -437z"/>
    <path d="M33510 6140 c-285 -19 -518 -88 -710 -208 -250 -158 -390 -335 -450 -570 -41 -163 -52 -268 -57 -564 l-6 -288 577 0 576 0 0 338 c1 336 8 460 32 510 7 14 29 37 48 50 31 21 44 23 110 20 90 -4 119 -21 155 -93 42 -86 63 -337 46 -547 -12 -138 -25 -190 -60 -224 -54 -54 -239 -142 -618 -295 -385 -154 -602 -268 -703 -369 -55 -55 -106 -164 -132 -281 -18 -82 -21 -139 -25 -436 -6 -380 3 -515 42 -670 58 -227 146 -338 345 -436 63 -31 151 -65 195 -77 246 -62 495 -38 682 65 87 48 214 177 268 270 l40 69 3 -187 2 -187 595 0 595 0 0 1223 c0 1662 -15 2010 -95 2240 -88 255 -343 480 -645 570 -217 66 -534 95 -810 77z m330 -2617 c0 -682 -12 -788 -95 -827 -52 -25 -172 -19 -212 10 -75 54 -99 190 -90 523 8 309 29 390 135 512 46 52 240 219 255 219 4 0 7 -197 7 -437z"/>
    <path d="M20430 4478 c0 -970 4 -1655 10 -1734 12 -161 38 -261 97 -384 91 -190 270 -324 493 -371 125 -26 342 -28 455 -4 107 22 209 66 292 124 75 53 174 153 218 218 15 24 30 43 33 43 5 0 -6 -247 -14 -303 l-6 -37 626 0 626 0 0 2025 0 2025 -615 0 -615 0 0 -1562 c0 -965 -4 -1599 -10 -1657 -11 -103 -24 -132 -73 -161 -43 -26 -157 -28 -207 -2 -54 26 -68 67 -80 227 -6 85 -10 737 -10 1648 l0 1507 -610 0 -610 0 0 -1602z"/>
  </g>
</svg>